<svg xmlns="http://www.w3.org/2000/svg" width="320" height="320" viewBox="0 0 320 320">
<g>
<path d="M 222.81 100.56 C222.58,104.95 222.11,106.51 221.00,106.61 C220.18,106.68 211.40,106.16 201.50,105.45 C179.16,103.85 135.69,103.65 114.59,105.06 C105.86,105.64 98.36,105.75 97.93,105.31 C96.81,104.16 100.55,71.19 102.99,60.69 C107.56,41.00 114.80,29.80 126.47,24.36 C134.92,20.43 141.58,21.77 151.60,29.42 C158.36,34.58 161.54,34.86 171.00,31.12 C176.91,28.78 180.48,28.00 185.20,28.01 C199.93,28.03 209.06,37.12 216.59,59.25 C219.48,67.75 223.22,92.59 222.81,100.56 ZM 145.85 188.57 C143.72,189.68 138.44,189.99 122.30,189.94 C110.86,189.90 100.60,189.50 99.50,189.05 C95.66,187.48 93.68,184.15 93.21,178.48 C92.91,174.96 92.30,173.00 91.48,173.00 C89.90,173.00 89.00,170.75 89.00,166.82 C89.00,164.65 89.56,163.67 91.00,163.29 C92.61,162.87 93.00,161.93 93.00,158.43 C93.00,152.61 94.63,149.40 98.37,147.85 C101.70,146.47 141.70,146.13 145.85,147.45 C148.73,148.37 150.31,151.47 150.96,157.50 L 151.50 162.50 L 164.00 163.10 L 164.01 159.80 C164.02,154.16 165.82,149.40 168.40,148.23 C170.32,147.35 200.97,146.49 214.80,146.93 C216.06,146.97 218.20,148.10 219.55,149.45 C221.55,151.46 222.00,152.90 222.00,157.39 C222.00,162.62 222.12,162.88 224.75,163.18 C227.05,163.45 227.55,164.04 227.82,166.82 C228.18,170.58 226.64,173.00 223.88,173.00 C222.32,173.00 222.00,173.76 222.00,177.43 C222.00,189.13 219.99,190.00 193.30,189.99 C178.69,189.97 171.76,189.60 170.00,188.72 C166.79,187.12 164.00,181.55 164.00,176.75 L 164.00 173.00 L 151.00 173.00 L 151.00 177.45 C151.00,183.16 149.32,186.78 145.85,188.57 ZM 216.50 133.03 C203.38,134.63 191.97,135.18 166.50,135.46 C128.23,135.87 104.45,134.57 83.66,130.91 C69.20,128.36 60.16,123.92 62.86,120.67 C66.16,116.70 79.61,113.58 105.10,110.90 C145.71,106.61 213.15,108.73 240.08,115.13 C253.90,118.41 257.06,122.38 249.07,126.44 C244.49,128.77 233.86,130.92 216.50,133.03 ZM 140.22 238.15 C133.51,240.01 123.09,240.43 117.50,239.06 C108.89,236.96 101.79,231.15 100.21,224.92 C98.82,219.45 99.78,216.10 103.39,213.91 C107.58,211.35 109.00,211.51 109.00,214.55 C109.00,217.52 112.77,221.65 116.30,222.54 C119.77,223.41 125.50,220.20 131.50,214.00 C134.25,211.16 137.72,208.20 139.20,207.42 C143.66,205.07 149.19,205.63 153.67,208.87 L 157.63 211.75 L 161.07 208.90 C164.82,205.79 169.61,204.43 173.44,205.40 C174.79,205.74 178.51,208.32 181.70,211.14 C189.77,218.26 192.87,219.99 197.60,220.00 C202.53,220.00 205.15,217.58 205.39,212.80 C205.60,208.80 207.36,208.28 211.70,210.94 C219.15,215.52 216.28,228.70 206.75,233.63 C190.84,241.86 164.78,238.40 159.77,227.40 C159.17,226.08 158.41,225.02 158.09,225.04 C157.77,225.06 156.28,226.83 154.80,228.98 C151.29,234.05 148.37,235.89 140.22,238.15 ZM 146.10 280.29 C137.80,288.21 135.22,289.54 132.22,287.44 C129.04,285.21 122.00,263.34 122.00,255.68 C122.00,251.17 124.39,248.65 127.89,249.46 C129.33,249.80 135.49,252.53 141.59,255.54 C151.24,260.29 153.45,261.00 158.59,261.00 C163.53,261.00 165.42,260.44 170.12,257.61 C173.21,255.74 176.81,253.90 178.12,253.50 C179.43,253.11 181.40,252.24 182.50,251.56 C183.60,250.88 185.96,250.04 187.74,249.69 C190.48,249.15 191.25,249.45 192.64,251.57 C194.18,253.92 194.18,254.69 192.63,262.57 C190.90,271.39 185.82,285.52 183.54,287.85 C181.49,289.96 176.65,287.12 168.21,278.87 C161.36,272.18 160.71,271.78 157.37,272.33 C154.73,272.76 151.85,274.79 146.10,280.29 ZM 177.00 182.29 C177.82,182.60 185.56,182.88 194.19,182.92 C209.39,183.00 209.98,182.92 212.69,180.59 C215.36,178.29 215.52,177.70 215.84,168.25 C216.16,158.86 216.04,158.16 213.68,155.41 L 211.18 152.50 L 196.41 152.17 C171.70,151.63 171.00,152.04 171.00,167.33 C171.00,176.76 171.19,177.83 173.25,179.70 C174.49,180.82 176.18,181.99 177.00,182.29 ZM 105.26 182.30 C109.80,183.17 136.95,182.97 139.39,182.04 C143.42,180.51 145.00,176.17 145.00,166.61 C145.00,159.07 144.73,157.80 142.59,155.31 L 140.17 152.50 L 122.00 152.50 C121.33,152.50 120.68,152.50 120.06,152.50 C108.72,152.49 103.79,152.49 101.64,154.93 C99.99,156.82 99.99,160.16 100.00,166.08 C100.00,166.50 100.00,166.94 100.00,167.39 C100.00,178.39 101.09,181.49 105.26,182.30 ZM 200.06 173.94 C196.60,177.40 191.81,176.47 189.44,171.88 C188.16,169.42 188.13,168.51 189.21,166.24 C190.99,162.54 195.32,161.11 198.82,163.06 C202.41,165.07 203.07,170.93 200.06,173.94 ZM 125.69 173.83 C124.41,175.02 122.39,176.00 121.19,176.00 C118.87,176.00 115.08,172.84 114.88,170.75 C114.59,167.51 115.29,165.36 117.17,163.75 C123.80,158.09 132.04,167.85 125.69,173.83 Z" fill="rgb(2,2,2)"/>
<path d="M 0.00 160.00 L 0.00 0.00 L 160.00 0.00 L 320.00 0.00 L 320.00 160.00 L 320.00 320.00 L 160.00 320.00 L 0.00 320.00 L 0.00 160.00 ZM 146.10 280.29 C151.85,274.79 154.73,272.76 157.37,272.33 C160.71,271.78 161.36,272.18 168.21,278.87 C176.65,287.12 181.49,289.96 183.54,287.85 C185.82,285.52 190.90,271.39 192.63,262.57 C194.18,254.69 194.18,253.92 192.64,251.57 C191.25,249.45 190.48,249.15 187.74,249.69 C185.96,250.04 183.60,250.88 182.50,251.56 C181.40,252.24 179.43,253.11 178.12,253.50 C176.81,253.90 173.21,255.74 170.12,257.61 C165.42,260.44 163.53,261.00 158.59,261.00 C153.45,261.00 151.24,260.29 141.59,255.54 C135.49,252.53 129.33,249.80 127.89,249.46 C124.39,248.65 122.00,251.17 122.00,255.68 C122.00,263.34 129.04,285.21 132.22,287.44 C135.22,289.54 137.80,288.21 146.10,280.29 ZM 140.22 238.15 C148.37,235.89 151.29,234.05 154.80,228.98 C156.28,226.83 157.77,225.06 158.09,225.04 C158.41,225.02 159.17,226.08 159.77,227.40 C164.78,238.40 190.84,241.86 206.75,233.63 C216.28,228.70 219.15,215.52 211.70,210.94 C207.36,208.28 205.60,208.80 205.39,212.80 C205.15,217.58 202.53,220.00 197.60,220.00 C192.87,219.99 189.77,218.26 181.70,211.14 C178.51,208.32 174.79,205.74 173.44,205.40 C169.61,204.43 164.82,205.79 161.07,208.90 L 157.63 211.75 L 153.67 208.87 C149.19,205.63 143.66,205.07 139.20,207.42 C137.72,208.20 134.25,211.16 131.50,214.00 C125.50,220.20 119.77,223.41 116.30,222.54 C112.77,221.65 109.00,217.52 109.00,214.55 C109.00,211.51 107.58,211.35 103.39,213.91 C99.78,216.10 98.82,219.45 100.21,224.92 C101.79,231.15 108.89,236.96 117.50,239.06 C123.09,240.43 133.51,240.01 140.22,238.15 ZM 145.85 188.57 C149.32,186.78 151.00,183.16 151.00,177.45 L 151.00 173.00 L 157.50 173.00 L 164.00 173.00 L 164.00 176.75 C164.00,181.55 166.79,187.12 170.00,188.72 C171.76,189.60 178.69,189.97 193.30,189.99 C219.99,190.00 222.00,189.13 222.00,177.43 C222.00,173.76 222.32,173.00 223.88,173.00 C226.64,173.00 228.18,170.58 227.82,166.82 C227.55,164.04 227.05,163.45 224.75,163.18 C222.12,162.88 222.00,162.62 222.00,157.39 C222.00,152.90 221.55,151.46 219.55,149.45 C218.20,148.10 216.06,146.97 214.80,146.93 C200.97,146.49 170.32,147.35 168.40,148.23 C165.82,149.40 164.02,154.16 164.01,159.80 L 164.00 163.10 L 157.75 162.80 L 151.50 162.50 L 150.96 157.50 C150.31,151.47 148.73,148.37 145.85,147.45 C141.70,146.13 101.70,146.47 98.37,147.85 C94.63,149.40 93.00,152.61 93.00,158.43 C93.00,161.93 92.61,162.87 91.00,163.29 C89.56,163.67 89.00,164.65 89.00,166.82 C89.00,170.75 89.90,173.00 91.48,173.00 C92.30,173.00 92.91,174.96 93.21,178.48 C93.68,184.15 95.66,187.48 99.50,189.05 C100.60,189.50 110.86,189.90 122.30,189.94 C138.44,189.99 143.72,189.68 145.85,188.57 ZM 216.50 133.03 C233.86,130.92 244.49,128.77 249.07,126.44 C257.06,122.38 253.90,118.41 240.08,115.13 C213.15,108.73 145.71,106.61 105.10,110.90 C79.61,113.58 66.16,116.70 62.86,120.67 C60.16,123.92 69.20,128.36 83.66,130.91 C104.45,134.57 128.23,135.87 166.50,135.46 C191.97,135.18 203.38,134.63 216.50,133.03 ZM 222.81 100.56 C223.22,92.59 219.48,67.75 216.59,59.25 C209.06,37.12 199.93,28.03 185.20,28.01 C180.48,28.00 176.91,28.78 171.00,31.12 C161.54,34.86 158.36,34.58 151.60,29.42 C141.58,21.77 134.92,20.43 126.47,24.36 C114.80,29.80 107.56,41.00 102.99,60.69 C100.55,71.19 96.81,104.16 97.93,105.31 C98.36,105.75 105.86,105.64 114.59,105.06 C135.69,103.65 179.16,103.85 201.50,105.45 C211.40,106.16 220.18,106.68 221.00,106.61 C222.11,106.51 222.58,104.95 222.81,100.56 ZM 105.26 182.30 C101.09,181.49 100.00,178.39 100.00,167.39 C100.00,152.04 99.31,152.50 122.00,152.50 L 140.17 152.50 L 142.59 155.31 C144.73,157.80 145.00,159.07 145.00,166.61 C145.00,176.17 143.42,180.51 139.39,182.04 C136.95,182.97 109.80,183.17 105.26,182.30 ZM 125.69 173.83 C132.04,167.85 123.80,158.09 117.17,163.75 C115.29,165.36 114.59,167.51 114.88,170.75 C115.08,172.84 118.87,176.00 121.19,176.00 C122.39,176.00 124.41,175.02 125.69,173.83 ZM 177.00 182.29 C176.18,181.99 174.49,180.82 173.25,179.70 C171.19,177.83 171.00,176.76 171.00,167.33 C171.00,152.04 171.70,151.63 196.41,152.17 L 211.18 152.50 L 213.68 155.41 C216.04,158.16 216.16,158.86 215.84,168.25 C215.52,177.70 215.36,178.29 212.69,180.59 C209.98,182.92 209.39,183.00 194.19,182.92 C185.56,182.88 177.82,182.60 177.00,182.29 ZM 200.06 173.94 C203.07,170.93 202.41,165.07 198.82,163.06 C195.32,161.11 190.99,162.54 189.21,166.24 C188.13,168.51 188.16,169.42 189.44,171.88 C191.81,176.47 196.60,177.40 200.06,173.94 Z" fill="rgb(254,254,254)"/>
</g>
</svg>